<?xml version="1.0" encoding="utf-8"?>
<!-- Generator: Adobe Illustrator 15.0.0, SVG Export Plug-In . SVG Version: 6.00 Build 0)  -->
<!DOCTYPE svg PUBLIC "-//W3C//DTD SVG 1.1//EN" "http://www.w3.org/Graphics/SVG/1.1/DTD/svg11.dtd">
<svg version="1.1" xmlns="http://www.w3.org/2000/svg" xmlns:xlink="http://www.w3.org/1999/xlink" x="0px" y="0px" width="1000px"
	 height="1000px" viewBox="0 0 1000 1000" enable-background="new 0 0 1000 1000" xml:space="preserve">
<g id="带文字-橘黄色" display="none">
	<path display="inline" fill="none" stroke="#F39800" stroke-width="30" stroke-miterlimit="10" d="M944.695,365.616
		c0,245.744-199.216,444.959-444.959,444.959S54.779,611.36,54.779,365.616"/>
	<path display="inline" fill="none" stroke="#F39800" stroke-width="30" stroke-miterlimit="10" d="M357.211,668.05
		c-167.029,0-302.433-135.403-302.433-302.433S190.183,63.185,357.211,63.185"/>
	<path display="inline" fill="none" stroke="#F39800" stroke-width="30" stroke-miterlimit="10" d="M642.263,63.185
		c167.029,0,302.433,135.403,302.433,302.432c0,167.029-135.403,302.433-302.434,302.433"/>
	
		<line display="inline" fill="none" stroke="#F39800" stroke-width="30" stroke-miterlimit="10" x1="357.211" y1="382.301" x2="642.262" y2="382.301"/>
	<text transform="matrix(0.9022 0 0 1 0 966.7578)" display="inline"><tspan x="0" y="0" fill="#F39800" font-family="'ComicSansMS'" font-size="109.345">HOWDUUDU</tspan><tspan x="684.474" y="0" fill="#F39800" font-family="'AdobeSongStd-Light-GBpc-EUC-H'" font-size="109.345"> </tspan><tspan x="707.107" y="0" fill="#F39800" font-family="'AdobeSongStd-Light-GBpc-EUC-H'" font-size="98.395">*</tspan><tspan x="748.727" y="0" fill="#036EB8" font-family="'AdobeSongStd-Light-GBpc-EUC-H'" font-size="98.395"> </tspan></text>
	
		<text transform="matrix(0.9197 0 0 1 688.7002 953.3096)" display="inline" fill="#F39800" stroke="#F39800" stroke-width="2" stroke-miterlimit="10" font-family="'MicrosoftYaHei'" font-size="83.9436">好读优读</text>
	
		<line display="inline" fill="none" stroke="#F39800" stroke-width="30" stroke-miterlimit="10" x1="656.063" y1="671.729" x2="656.063" y2="51"/>
	
		<line display="inline" fill="none" stroke="#F39800" stroke-width="30" stroke-miterlimit="10" x1="343.259" y1="676.104" x2="343.259" y2="55.375"/>
</g>
<g id="不带文字-橘黄色">
	<path fill="none" stroke="#F39800" stroke-width="30" stroke-miterlimit="10" d="M982.021,418.117
		c0,266.215-215.813,482.022-482.025,482.022c-266.212,0-482.021-215.807-482.021-482.022"/>
	<path fill="none" stroke="#F39800" stroke-width="30" stroke-miterlimit="10" d="M345.601,745.744
		c-180.942,0-327.625-146.686-327.625-327.626c0-180.942,146.683-327.625,327.625-327.625"/>
	<path fill="none" stroke="#F39800" stroke-width="30" stroke-miterlimit="10" d="M654.396,90.493
		c180.942,0,327.625,146.682,327.625,327.624S835.339,745.742,654.396,745.742"/>
	
		<line fill="none" stroke="#F39800" stroke-width="30" stroke-miterlimit="10" x1="345.601" y1="436.191" x2="654.396" y2="436.191"/>
	
		<line fill="none" stroke="#F39800" stroke-width="30" stroke-miterlimit="10" x1="669.346" y1="749.727" x2="669.346" y2="77.293"/>
	
		<line fill="none" stroke="#F39800" stroke-width="30" stroke-miterlimit="10" x1="330.487" y1="754.469" x2="330.487" y2="82.033"/>
</g>
<g id="带文字-白色" display="none">
	<path display="inline" fill="none" stroke="#FFFFFF" stroke-width="30" stroke-miterlimit="10" d="M944.695,365.616
		c0,245.744-199.216,444.959-444.959,444.959S54.779,611.36,54.779,365.616"/>
	<path display="inline" fill="none" stroke="#FFFFFF" stroke-width="30" stroke-miterlimit="10" d="M357.211,668.05
		c-167.029,0-302.433-135.403-302.433-302.433S190.183,63.185,357.211,63.185"/>
	<path display="inline" fill="none" stroke="#FFFFFF" stroke-width="30" stroke-miterlimit="10" d="M642.263,63.185
		c167.029,0,302.433,135.403,302.433,302.432c0,167.029-135.403,302.433-302.434,302.433"/>
	
		<line display="inline" fill="none" stroke="#FFFFFF" stroke-width="30" stroke-miterlimit="10" x1="357.211" y1="382.301" x2="642.262" y2="382.301"/>
	<text transform="matrix(0.9022 0 0 1 0 966.7578)" display="inline"><tspan x="0" y="0" fill="#FFFFFF" stroke="#FFFFFF" stroke-miterlimit="10" font-family="'ComicSansMS'" font-size="109.345">HOWDUUDU</tspan><tspan x="684.474" y="0" fill="#FFFFFF" stroke="#FFFFFF" stroke-miterlimit="10" font-family="'AdobeSongStd-Light-GBpc-EUC-H'" font-size="109.345"> </tspan><tspan x="707.107" y="0" fill="#FFFFFF" stroke="#FFFFFF" stroke-miterlimit="10" font-family="'AdobeSongStd-Light-GBpc-EUC-H'" font-size="98.395">* </tspan></text>
	
		<text transform="matrix(0.9197 0 0 1 688.7002 953.3096)" display="inline" fill="#FFFFFF" stroke="#FFFFFF" stroke-width="2" stroke-miterlimit="10" font-family="'MicrosoftYaHei'" font-size="83.9436">好读优读</text>
	
		<line display="inline" fill="none" stroke="#FFFFFF" stroke-width="30" stroke-miterlimit="10" x1="656.063" y1="671.729" x2="656.063" y2="51"/>
	
		<line display="inline" fill="none" stroke="#FFFFFF" stroke-width="30" stroke-miterlimit="10" x1="343.259" y1="676.104" x2="343.259" y2="55.375"/>
</g>
<g id="不带文字-白色" display="none">
	<path display="inline" fill="none" stroke="#FFFFFF" stroke-width="30" stroke-miterlimit="10" d="M982.021,418.117
		c0,266.215-215.813,482.022-482.025,482.022c-266.212,0-482.021-215.807-482.021-482.022"/>
	<path display="inline" fill="none" stroke="#FFFFFF" stroke-width="30" stroke-miterlimit="10" d="M345.601,745.744
		c-180.942,0-327.625-146.686-327.625-327.626c0-180.942,146.683-327.625,327.625-327.625"/>
	<path display="inline" fill="none" stroke="#FFFFFF" stroke-width="30" stroke-miterlimit="10" d="M654.396,90.493
		c180.942,0,327.625,146.682,327.625,327.624S835.339,745.742,654.396,745.742"/>
	
		<line display="inline" fill="none" stroke="#FFFFFF" stroke-width="30" stroke-miterlimit="10" x1="345.601" y1="436.191" x2="654.396" y2="436.191"/>
	
		<line display="inline" fill="none" stroke="#FFFFFF" stroke-width="30" stroke-miterlimit="10" x1="669.346" y1="749.727" x2="669.346" y2="77.293"/>
	
		<line display="inline" fill="none" stroke="#FFFFFF" stroke-width="30" stroke-miterlimit="10" x1="330.487" y1="754.469" x2="330.487" y2="82.033"/>
</g>
<g id="横-带文字-橘黄色" display="none">
	<path display="inline" fill="none" stroke="#F39800" stroke-width="30" stroke-miterlimit="10" d="M464.466,469.414
		c0,122.037-98.932,220.966-220.967,220.966S22.534,591.45,22.534,469.414"/>
	<path display="inline" fill="none" stroke="#F39800" stroke-width="30" stroke-miterlimit="10" d="M172.722,619.603
		c-82.947,0-150.188-67.242-150.188-150.188c0-82.947,67.241-150.188,150.188-150.188"/>
	<path display="inline" fill="none" stroke="#F39800" stroke-width="30" stroke-miterlimit="10" d="M314.278,319.226
		c82.947,0,150.188,67.241,150.188,150.188c0,82.947-67.241,150.189-150.188,150.189"/>
	
		<line display="inline" fill="none" stroke="#F39800" stroke-width="30" stroke-miterlimit="10" x1="172.722" y1="477.7" x2="314.278" y2="477.7"/>
	
		<line display="inline" fill="none" stroke="#F39800" stroke-width="30" stroke-miterlimit="10" x1="329.131" y1="621.429" x2="329.131" y2="313.175"/>
	
		<line display="inline" fill="none" stroke="#F39800" stroke-width="30" stroke-miterlimit="10" x1="158.793" y1="623.603" x2="158.793" y2="315.348"/>
	
		<text transform="matrix(0.9022 0 0 1 534.8809 579.8965)" display="inline" fill="#F39800" font-family="'ComicSansMS'" font-size="80">HOWDUUDU</text>
	
		<text transform="matrix(0.9197 0 0 1 645.5957 678.6064)" display="inline" fill="#F39800" stroke="#F39800" stroke-width="2" stroke-miterlimit="10" font-family="'MicrosoftYaHei'" font-size="64">好读优读</text>
</g>
<g id="横-带文字-白色" display="none">
	<path display="inline" fill="none" stroke="#FFFFFF" stroke-width="30" stroke-miterlimit="10" d="M464.466,469.414
		c0,122.037-98.932,220.966-220.967,220.966S22.534,591.45,22.534,469.414"/>
	<path display="inline" fill="none" stroke="#FFFFFF" stroke-width="30" stroke-miterlimit="10" d="M172.722,619.603
		c-82.947,0-150.188-67.242-150.188-150.188c0-82.947,67.241-150.188,150.188-150.188"/>
	<path display="inline" fill="none" stroke="#FFFFFF" stroke-width="30" stroke-miterlimit="10" d="M314.278,319.226
		c82.947,0,150.188,67.241,150.188,150.188c0,82.947-67.241,150.189-150.188,150.189"/>
	
		<line display="inline" fill="none" stroke="#FFFFFF" stroke-width="30" stroke-miterlimit="10" x1="172.722" y1="477.7" x2="314.278" y2="477.7"/>
	
		<line display="inline" fill="none" stroke="#FFFFFF" stroke-width="30" stroke-miterlimit="10" x1="329.131" y1="621.429" x2="329.131" y2="313.175"/>
	
		<line display="inline" fill="none" stroke="#FFFFFF" stroke-width="30" stroke-miterlimit="10" x1="158.793" y1="623.603" x2="158.793" y2="315.348"/>
	
		<text transform="matrix(0.9022 0 0 1 534.8809 579.8965)" display="inline" fill="#FFFFFF" font-family="'ComicSansMS'" font-size="80">HOWDUUDU</text>
	
		<text transform="matrix(0.9197 0 0 1 645.5957 678.6064)" display="inline" fill="#FFFFFF" stroke="#FFFFFF" stroke-width="2" stroke-miterlimit="10" font-family="'MicrosoftYaHei'" font-size="64">好读优读</text>
</g>
</svg>
