<?xml version="1.0" encoding="UTF-8" standalone="no"?>
<svg
   version="1.1"
   width="1181"
   height="1181"
   id="svg13"
   sodipodi:docname="aisen.svg"
   inkscape:version="1.4.2 (ebf0e940, 2025-05-08)"
   xmlns:inkscape="http://www.inkscape.org/namespaces/inkscape"
   xmlns:sodipodi="http://sodipodi.sourceforge.net/DTD/sodipodi-0.dtd"
   xmlns="http://www.w3.org/2000/svg"
   xmlns:svg="http://www.w3.org/2000/svg">
  <defs
     id="defs13" />
  <sodipodi:namedview
     id="namedview13"
     pagecolor="#ffffff"
     bordercolor="#000000"
     borderopacity="0.25"
     inkscape:showpageshadow="2"
     inkscape:pageopacity="0.0"
     inkscape:pagecheckerboard="true"
     inkscape:deskcolor="#d1d1d1"
     labelstyle="below"
     inkscape:clip-to-page="true"
     inkscape:zoom="0.30905156"
     inkscape:cx="451.381"
     inkscape:cy="600.22348"
     inkscape:window-width="1392"
     inkscape:window-height="758"
     inkscape:window-x="0"
     inkscape:window-y="25"
     inkscape:window-maximized="0"
     inkscape:current-layer="svg13" />
  <path
     id="path1"
     style="stroke-width:1.35814;fill:#4d4d4d"
     d="M 420.61523 231.86914 C 410.85158 232.10761 410.85316 232.10781 396.8457 259.57227 C 395.50422 262.21745 394.15208 264.85528 392.78711 267.48242 C 390.01378 272.78952 387.24794 278.10266 384.50781 283.43555 C 378.72884 294.69974 372.99333 305.99545 366.91797 317.02539 C 362.00446 325.91815 357.26252 334.91653 352.625 344.0293 C 344.7745 359.49236 336.81079 374.84376 328.64453 390.06055 C 327.91425 391.42123 327.2049 392.74185 326.49609 394.0625 C 325.09334 396.7006 323.68655 399.33544 322.27539 401.9668 C 318.41345 408.85001 314.5907 415.38689 312.26953 423.28711 C 309.65812 433.21157 306.63483 442.64377 300.87695 450.51367 C 279.69011 460.70984 279.68955 460.70859 255.85938 457.92188 C 232.45088 456.24134 215.68723 459.59807 194.57422 472.57031 L 194.57422 475.57422 C 223.52251 476.57275 252.4416 477.31043 281.40234 477.10156 C 282.35707 477.09346 283.28429 477.08317 284.21094 477.07617 C 283.49747 478.38547 282.80381 479.65694 282.11133 480.92773 C 281.40745 482.21943 281.40868 482.22022 280.71875 483.48633 C 277.44133 489.50079 274.16413 495.51485 270.88672 501.5293 C 270.05833 503.0495 270.05808 503.04897 269.24609 504.53906 C 268.15889 506.53418 267.07155 508.53026 265.98438 510.52539 C 263.39782 515.27285 260.81211 520.02053 258.22266 524.76562 C 254.86157 530.92264 251.48691 537.06817 248.17578 543.26562 C 242.8295 553.34407 237.3433 563.2087 231.41992 572.79492 C 230.71267 573.92853 230.02629 575.02864 229.33984 576.12891 C 223.40161 585.66192 217.31537 595.09256 210.29688 603.48047 L 207.92773 605.98633 C 206.96883 607.00185 206.03812 607.98701 205.10742 608.97266 C 203.43663 610.71631 201.76724 612.46146 200.10742 614.2207 C 180.82406 634.67786 159.04803 656.7517 132.25977 657.8125 C 122.12612 657.25405 114.80888 654.04468 107.39453 645.32422 C 100.38736 635.37459 97.451105 621.78682 97.265625 608.80273 C 98.864265 579.95484 111.14479 548.80093 127.73242 528.33984 C 130.96041 524.59604 130.95894 524.59567 133.17969 520.64062 C 132.9063 514.9017 132.90762 514.90157 131.95312 510.125 C 112.21749 513.42007 91.217478 525.096 77.632812 543.10938 L 75.470703 546.17969 C 62.75646 563.63223 54.211566 586.04216 53.152344 609.52344 C 52.626664 632.04231 51.318852 655.70589 64.496094 673.67969 C 78.661396 688.82067 78.660441 688.82027 114.76172 685.88477 C 150.27548 682.03402 185.81201 654.99266 208.84961 622.79102 C 211.99363 618.21762 215.22132 613.77393 218.51953 609.36523 C 225.59315 599.95243 225.59155 599.95247 238.69531 578.35352 C 239.40185 577.18212 240.08768 576.04514 240.77344 574.9082 C 246.7324 565.03439 252.49661 555.0312 258.11719 544.86523 C 261.63534 538.49705 265.12575 532.12221 268.95703 526.02734 C 274.34315 517.63107 279.53436 509.18903 284.48828 500.40234 C 285.22867 499.07956 285.94742 497.79558 286.66602 496.51172 C 289.75291 491.01071 292.95592 485.62972 295.4668 479.69727 C 295.98274 478.37395 295.98453 478.37329 296.49023 477.07617 C 309.32181 478.47704 322.12757 478.9315 335.00195 479.24609 C 338.87504 479.33518 342.74815 479.42308 346.62109 479.52148 C 361.71357 479.90974 376.79851 480.16172 391.89453 480.10352 C 393.27284 480.09572 394.60948 480.08903 395.94727 480.08203 C 395.82722 490.13016 395.70377 500.1767 395.57227 510.22461 C 395.50453 515.35008 395.43485 520.47598 395.37305 525.60156 C 395.31374 530.61984 395.25225 535.6381 395.18555 540.65625 C 395.14645 543.55168 395.14758 543.55254 395.10938 546.39062 C 395.08817 548.2884 395.06738 550.13071 395.04688 551.97266 C 395.02167 553.73844 394.99706 555.45218 394.97266 557.16602 C 394.84893 566.93988 392.74679 574.11868 389.6543 583.07617 C 387.64486 588.77413 385.66689 592.5655 387.35352 598.75586 C 390.6731 596.99922 393.98916 595.23686 397.30469 593.46875 C 398.72184 592.7126 400.09718 591.98001 401.47266 591.24609 C 413.77323 584.73905 425.75386 577.64684 437.69531 570.21484 C 437.57433 562.14229 437.45071 554.06844 437.32031 545.99609 C 437.26633 542.67676 437.2113 539.35842 437.1582 536.03906 C 437.08555 531.18831 437.01289 526.33692 436.93359 521.48633 C 436.90729 519.89798 436.88292 518.35608 436.85742 516.81445 C 436.77624 511.07328 436.63845 505.34942 436.46875 499.60938 C 436.05126 493.48034 435.64543 487.53273 435.24023 481.58398 L 469.62109 481.58398 L 469.62109 457.54883 L 434.01172 457.54883 C 434.01172 451.40323 434.04392 445.25385 433.88477 439.11133 C 433.82275 437.54171 433.76333 436.01955 433.70312 434.49609 C 433.59789 431.78565 433.59729 431.78569 433.49414 429.12891 C 433.37607 426.1984 433.25798 423.26661 433.14258 420.33594 C 432.88465 413.75418 432.62237 407.17313 432.35742 400.5918 C 432.26467 398.28789 432.17258 395.98361 432.08008 393.67969 C 431.64856 382.9188 431.21518 372.15894 430.77734 361.39844 C 430.26899 348.90511 429.76614 336.41041 429.27539 323.91602 C 428.89222 314.15993 428.50313 304.40561 428.10547 294.65039 C 427.86789 288.84874 427.62869 283.04647 427.40234 277.24414 C 427.18838 271.70296 426.97133 266.16125 426.74023 260.62109 C 426.65421 258.58546 426.56838 256.55139 426.48438 254.51562 C 426.37488 251.57674 426.37489 251.57601 426.26758 248.69531 C 426.1896 246.901 426.11476 245.15951 426.03906 243.41797 C 425.85385 238.81345 425.85437 238.81364 425.41797 235.2207 C 422.96219 232.21627 422.96069 232.21536 420.61523 231.86914 z M 383.81055 322.3418 C 384.45808 322.33543 385.16366 322.62785 386.41797 323.14844 C 388.75049 325.16527 388.75048 325.16586 389.54883 328.38477 C 389.71211 329.64045 389.87082 330.85938 390.0293 332.07812 C 390.2148 333.47722 390.39418 334.83542 390.57422 336.19336 C 390.73119 337.61538 390.88476 338.99479 391.03711 340.375 C 394.54222 398.88785 394.54153 398.88901 393.49219 457.54883 L 306.3125 457.54883 C 306.20109 455.58176 306.20186 455.58202 308.11523 452.65039 C 309.45945 450.25307 310.80241 447.85384 312.14258 445.45312 C 312.66324 444.52003 313.16847 443.61464 313.67383 442.70898 C 327.08678 418.733 340.20831 394.53319 353.21484 370.22461 C 361.13773 355.41527 368.98293 334.90969 380.55859 324.00195 C 382.24235 322.85278 382.978 322.34998 383.81055 322.3418 z M 536.38477 394.20508 C 530.56251 394.06151 524.82808 396.92024 519.2793 400.0293 C 510.74926 405.53939 502.48174 413.08337 499.08984 424.5 C 497.9505 432.69054 497.88295 438.74095 501.62305 445.8125 C 505.22997 448.53526 505.22998 448.53432 509.75781 449.09766 C 514.08231 448.49871 515.39924 448.13895 518.37695 444.4043 C 523.73344 437.40122 529.16445 431.69589 535.69727 426.4707 C 539.71187 423.35477 539.71199 423.35456 543.29492 419.99219 C 547.27944 413.6776 548.95181 410.00617 548.20508 401.9668 C 546.97719 398.96236 546.9784 398.96257 544.36914 396.52148 C 541.69543 394.95707 539.03125 394.27034 536.38477 394.20508 z M 724.8418 449.61523 C 720.53265 449.50768 717.23259 450.61054 713.26758 455.32617 C 712.085 456.82515 710.86537 458.28008 709.61133 459.68945 C 708.29565 461.14286 706.98766 462.60727 705.68945 464.08398 C 701.36012 469.03405 697.05416 474.0042 692.54883 478.71484 C 678.79286 492.82454 672.5995 512.63007 669.76758 534.16016 C 669.44173 548.71097 676.02242 560.86224 683.27344 571.7168 C 687.87116 577.29094 692.17855 580.17268 698.79883 580.61133 C 699.78218 580.65129 700.73697 580.69167 701.69141 580.73047 L 705.39062 581.22266 C 715.02639 582.05972 720.24305 579.96926 727.66016 572.46094 C 729.50969 570.48027 731.36618 568.50824 733.27734 566.61719 C 734.76441 565.16831 736.2467 563.71285 737.72461 562.25 C 738.82793 561.15116 738.8287 561.15131 739.91016 560.07422 C 741.28016 558.72155 742.63919 557.35341 743.98633 555.9668 C 746.90042 552.45616 748.0347 551.05942 748.35156 546.17969 C 745.34254 547.31935 742.76698 547.71628 739.59766 547.88086 C 738.1642 547.87616 736.77412 547.87314 735.38281 547.86914 C 732.74749 547.87646 730.10931 547.82442 727.47656 547.68164 C 718.70744 544.10556 712.98796 538.49941 708.22461 528.80273 C 707.40591 526.95657 707.40601 526.95806 706.60352 525.14844 C 706.0784 523.98529 705.56825 522.85552 705.05859 521.72656 C 699.49404 507.42077 700.18793 490.41308 704.14844 475.57422 C 705.96024 475.71351 705.95845 475.71309 707.73438 475.84961 C 709.33254 475.97929 710.88437 476.10655 712.43555 476.23242 C 717.11269 476.60329 721.79813 476.65854 726.25 478.58008 C 729.14787 481.53417 729.14789 481.53344 729.39648 487.0293 C 729.31749 492.93471 727.75508 495.64744 724.56055 499.98633 C 722.14324 502.93152 720.24954 505.30622 718.60352 508.97461 C 718.12393 510.31404 718.1244 510.31404 717.6543 511.62695 L 715.19922 511.62695 C 712.55687 516.47597 712.49554 518.06427 712.74219 523.64648 C 716.29723 522.20687 718.72774 520.8085 721.55469 517.75977 C 725.12542 513.11976 728.66853 508.49038 732.57031 504.26367 C 736.48404 500.21853 740.14499 496.25411 743.43945 491.44141 C 745.42761 488.43951 747.38564 485.79662 749.71875 483.17969 C 753.12543 479.38943 756.27563 476.17781 757.97266 470.85156 C 758.60397 466.22604 758.59937 462.95865 756.66797 458.85742 C 751.75372 452.51419 751.75511 452.51394 732.49805 450.33203 C 731.49583 450.23191 730.52158 450.13431 729.54883 450.03711 C 727.82593 449.82142 726.27818 449.65109 724.8418 449.61523 z M 638.54688 460.06055 C 636.75687 460.11981 636.75651 460.11963 635.00195 460.17773 C 625.84321 460.36117 618.99794 463.20965 610.82812 468.06445 C 594.86834 478.12128 578.62233 489.49798 572.76367 511.62695 C 571.68325 520.34526 572.35795 529.262 576.6543 536.61523 C 578.90353 538.66684 578.9027 538.66729 582.51172 539.29297 C 583.99666 539.32367 585.43765 539.35301 586.87891 539.38281 C 589.29382 539.45419 591.70962 539.52501 594.125 539.56641 C 596.61776 539.60582 599.10911 539.66251 601.60156 539.72461 C 603.22338 539.76851 604.79893 539.81082 606.37305 539.85352 C 609.0873 539.90316 611.80074 539.99946 614.51172 540.16992 C 618.78311 540.97232 619.20407 541.3597 622.18555 545.61523 C 624.63382 551.39178 624.82884 554.7837 624.33398 561.20117 C 622.93053 566.35216 621.5925 568.28688 618.19531 571.7168 C 608.54446 575.22019 600.35428 570.45427 591.94922 565.05078 C 586.00579 561.03779 580.94325 557.16089 573.99219 556.69336 C 568.92706 559.28734 566.28826 562.51613 564.16797 568.71289 C 564.25336 573.83151 564.84972 576.72787 567.18164 580.97656 C 571.09818 584.43061 571.09738 584.43054 578.92969 584.33594 C 580.58285 584.2692 580.58272 584.26842 582.20312 584.20312 C 599.92748 583.95948 617.41514 581.31357 633.62109 571.99805 C 644.03985 565.07214 651.41421 555.74103 655.03125 541.67188 C 655.84712 532.16089 656.127 524.72426 651.59766 516.76172 C 647.89675 512.33627 647.89598 512.33633 636.75195 512.08203 C 626.11751 512.11981 616.23704 511.96625 605.91602 508.62305 C 605.60598 507.10582 605.60664 507.10634 605.30273 505.61914 C 603.99333 496.00741 603.63366 488.27954 608.37305 480.08203 C 613.28249 477.73411 616.49923 479.11271 621.23828 481.57812 C 627.51571 485.02374 633.3899 488.07504 640.29688 489.09375 C 641.52476 484.58711 641.52608 484.58874 642.26953 480.03516 C 642.51252 478.26348 642.74853 476.54379 642.98438 474.82422 C 643.92935 468.2009 644.63823 466.26516 641.52539 460.55273 C 640.51267 460.38513 639.52981 460.22321 638.54688 460.06055 z M 814.37109 467.94141 C 811.16872 467.98567 807.90223 469.13978 804.39258 471.57812 C 803.39454 472.39413 802.42572 473.18651 801.45703 473.97852 C 798.48325 476.3668 798.48301 476.36784 796.23828 478.58008 L 796.23828 481.58398 L 793.7832 481.58398 C 792.94824 483.62699 792.13854 485.60888 791.32812 487.5918 L 788.87109 487.5918 L 788.87109 490.59766 C 783.95954 492.74367 783.96037 492.74354 779.04883 502.61523 C 785.61469 503.30772 790.58222 504.16369 796.23828 508.62305 C 810.04675 539.6668 810.04762 539.66749 811.96094 576 C 812.04279 577.09745 812.12167 578.1614 812.20117 579.22656 L 814.6582 579.22656 C 816.91361 574.79406 816.91334 574.79532 819.46875 571.74609 C 823.17604 567.33545 826.8899 562.95522 830.32812 558.22656 C 834.48546 552.25371 838.79733 546.62861 843.35938 541.10938 C 846.77935 536.9827 850.12389 532.85136 853.33008 528.47461 C 860.29195 518.72215 866.54291 511.61994 876.82422 507.73828 C 883.2782 506.37243 888.68093 508.63677 894.24023 512.56641 C 899.56228 519.63559 902.16657 528.13028 903.70508 537.45508 L 904.2168 540.82617 C 904.61856 543.30628 905.01907 545.78725 905.41992 548.26758 C 906.12294 552.74096 906.83341 557.21254 907.5625 561.67969 C 909.18533 571.53609 910.80125 581.39414 912.40234 591.25586 C 912.56745 592.274 912.72842 593.26181 912.88867 594.25 C 916.57233 594.25 916.57137 594.2493 919.58203 592.73242 L 923.10938 590.63477 C 925.04108 589.49388 925.04014 589.49329 926.93359 588.375 C 928.28959 587.56297 929.60577 586.77641 930.92188 585.98828 C 935.55564 583.24314 940.18793 580.49291 944.8125 577.72461 C 945.01559 565.55399 944.62307 553.49774 943.80273 541.37305 C 943.65116 539.2197 943.50287 537.06589 943.35547 534.91211 C 942.39853 518.48474 941.24483 502.42196 932.93555 488.70703 C 927.11806 480.55939 920.30845 477.49153 911.62109 476.76562 C 888.4995 476.38053 888.50038 476.38006 859.39844 510.21875 C 858.50884 511.2708 857.64467 512.29333 856.78125 513.31445 L 854.32812 516.1875 C 851.91993 519.04036 851.19576 520.64062 847.81055 520.64062 C 846.63659 516.7104 845.44788 512.78893 844.24219 508.87305 C 843.73339 507.22409 843.23993 505.62392 842.74609 504.02344 C 838.97073 491.36878 835.31384 481.63337 826.7832 472.9043 C 822.50042 469.66228 818.48844 467.8845 814.37109 467.94141 z M 519.96484 468.06445 C 517.50907 468.06445 517.50824 468.06438 514.29883 469.44336 C 512.93407 470.09179 511.6098 470.72026 510.28516 471.34961 C 508.80931 472.0479 507.37777 472.72655 505.94531 473.4043 C 503.66058 474.4941 501.3743 475.58343 499.08789 476.66797 C 494.58424 478.80109 490.0836 480.94014 485.58398 483.08594 C 485.10403 509.58741 484.62679 534.14935 493.71875 558.8125 C 497.70459 567.9972 504.17952 577.56887 512.59766 580.73047 C 519.24931 578.56787 523.82531 574.7001 529.28125 569.74414 C 530.41872 568.69071 531.52293 567.66892 532.62695 566.64648 C 533.78888 565.60502 534.91716 564.59481 536.04492 563.58398 C 537.14814 562.57045 538.21828 561.58527 539.28906 560.60156 C 540.78189 559.23434 540.78282 559.23467 542.24609 557.89453 C 544.71666 554.96154 545.30716 553.29922 545.75 549.18359 C 542.42789 547.26261 539.496 545.22187 536.61719 542.42383 C 521.14515 510.02247 521.14504 510.02261 520.13086 471.08789 C 520.04658 469.56102 520.04754 469.56108 519.96484 468.06445 z M 1065.7598 685.50977 C 1046.5842 687.85575 1040.2495 767.94731 1039.9785 786.60352 C 1040.742 792.16363 1042.1876 794.67586 1045.5 798.55078 C 1049.636 799.83013 1053.9311 799.40281 1057.7793 797.04883 L 1057.7793 791.03906 C 1055.2744 790.52831 1052.8433 790.03284 1050.4121 789.53711 C 1051.8224 762.40094 1055.5085 740.2129 1064.1484 715.17773 C 1064.7208 713.56779 1065.2765 712.00596 1065.832 710.44336 C 1066.3734 708.90899 1066.8983 707.41895 1067.4238 705.92969 C 1069.4567 700.26077 1070.8477 695.08907 1071.2852 688.88867 C 1068.8295 685.88423 1068.8296 685.88532 1065.7598 685.50977 z M 943.27734 688.51367 C 927.4777 690.27089 927.47837 690.27034 909.58789 757.80273 C 907.17516 767.08911 904.61584 776.07181 901.30078 784.9375 C 898.79479 791.39744 897.79601 795.88299 898.1543 803.05664 C 900.18798 804.52365 900.18659 804.52508 903.06445 806.0625 C 916.13808 808.13408 929.115 803.9237 939.97852 794.8418 C 950.04403 785.10954 958.30991 774.26359 960.23828 758.27344 C 959.38093 752.32968 958.45978 749.83134 954.63672 745.97266 C 942.50564 744.24117 933.9999 749.22867 924.0918 757.29883 C 923.20466 758.04501 922.34347 758.76796 921.48242 759.49219 C 924.531 741.52189 931.91752 726.7592 939.90234 711.42188 C 940.68838 709.95545 941.44997 708.53266 942.21289 707.10938 L 944.27539 703.16016 C 944.90323 701.99501 945.51367 700.86331 946.12305 699.73242 C 947.56555 695.5384 947.07286 693.18221 946.04102 688.88867 C 945.10168 688.76097 944.19101 688.63759 943.2793 688.51367 L 943.27734 688.51367 z M 1122.8477 727.98633 C 1112.21 728.1195 1099.4427 737.86037 1094.2324 745.78516 C 1091.9315 750.9983 1091.5392 753.66731 1092.1602 759.49219 C 1093.7937 764.74687 1095.5979 766.62525 1099.6035 769.25781 C 1102.258 770.88806 1102.2591 770.88837 1104.4395 773.01367 C 1105.4164 776.12725 1105.4151 776.12621 1105.666 779.02148 C 1099.7447 784.85718 1093.8991 786.70157 1086.5293 788.76367 C 1085.5215 789.02703 1084.5427 789.2815 1083.5645 789.53711 C 1083.147 791.58013 1082.7411 793.56395 1082.3359 795.54688 C 1083.1709 796.05763 1083.9826 796.5531 1084.793 797.04883 C 1094.8497 798.51755 1104.8384 795.9388 1113.2109 788.79297 C 1113.9855 788.02485 1114.7383 787.27874 1115.4902 786.5332 C 1116.6643 785.38401 1117.8037 784.26774 1118.9434 783.15234 C 1121.6294 779.02126 1121.6286 779.02156 1121.9355 773.66992 C 1120.1961 767.81775 1118.58 766.51247 1114.084 763.83594 C 1110.7803 761.8959 1108.254 759.65447 1105.666 756.48828 C 1105.1519 752.47845 1105.1519 752.47976 1105.666 748.97852 C 1109.5986 747.21493 1113.2887 745.92197 1117.4277 745.07617 C 1121.7001 744.41447 1125.9674 743.76336 1130.2246 742.96875 C 1132.6805 741.46653 1132.6801 741.4662 1133.6777 737.89844 C 1133.9079 733.95514 1133.9076 733.95484 1132.416 731.47852 C 1129.7022 728.9648 1126.3936 727.94194 1122.8477 727.98633 z M 820.25391 742.51758 C 815.24161 742.36708 814.34641 745.07565 809.56641 759.52539 C 809.1318 760.88707 808.70894 762.20962 808.28711 763.53125 C 806.14443 769.88252 804.10239 776.10176 802.95508 782.8457 C 802.23 789.26041 801.77616 791.43738 804.83398 797.04883 C 806.08642 797.17652 807.30197 797.2999 808.51758 797.42383 C 812.72766 796.99461 813.93534 796.3989 816.94141 792.85156 L 819.69922 789.36719 C 821.78198 786.76699 823.86198 784.16317 825.93945 781.55664 C 832.39201 773.38336 838.15506 765.97655 846.58203 760.99609 C 846.53511 764.15099 846.49189 767.30571 846.46289 770.46094 C 846.45149 771.77573 846.44079 773.05201 846.42969 774.32812 C 846.40839 775.63094 846.38779 776.89566 846.36719 778.16016 C 846.35909 779.40712 846.3498 780.61588 846.3418 781.82617 C 846.3285 782.97711 846.31563 784.0958 846.30273 785.21289 C 846.58152 788.03615 846.58329 788.03464 849.03906 791.03906 L 851.95508 791.03906 C 855.17828 789.53685 855.17761 789.53706 857.55664 785.59375 C 858.90728 782.88984 860.28487 780.19811 861.81641 777.64258 C 862.45568 776.67494 863.07485 775.73604 863.69531 774.79688 C 866.66097 770.21865 868.87672 769.25804 873.5957 768.50586 C 873.71799 771.50755 873.84202 774.51055 873.97266 777.51172 C 874.02729 778.75966 874.07981 779.9704 874.13281 781.18164 C 874.30986 785.6025 873.44858 792.3633 876.05078 795.54688 C 878.41063 795.24761 878.4112 795.24786 880.96289 794.04492 C 885.26816 787.20092 886.19931 779.37707 886.25781 770.94727 C 886.10706 763.43396 885.54249 757.39842 880.96289 751.98242 C 875.61284 750.99445 873.10235 751.4352 868.45312 754.89258 C 865.40872 757.62393 863.72707 758.8076 860.08984 759.49219 C 859.78288 755.26722 859.78225 755.26878 858.86133 750.48047 C 856.00417 746.44722 854.22357 746.0178 849.88281 745.31641 C 841.70044 746.50408 837.23213 751.18539 831.69336 758.17773 C 828.29634 762.74756 825.60342 765.03021 820.79688 767.00391 C 821.17685 765.86469 821.54526 764.76001 821.91406 763.6543 C 822.39514 762.14399 822.86314 760.67684 823.33008 759.21094 C 825.33025 753.05624 826.00567 749.38811 824.48047 742.96875 C 822.78708 742.73856 821.41059 742.55231 820.25391 742.51758 z M 1008.7773 742.70312 C 1000.8466 742.66314 995.5154 746.62773 989.01758 753.48438 C 978.3539 766.16556 968.42182 779.41984 968.14258 798.55078 C 968.97754 799.57228 969.7892 800.56323 970.59961 801.55469 C 979.42334 802.06875 984.16673 800.59959 991.47266 794.04492 L 991.47266 791.03906 C 992.15106 790.8156 992.81029 790.5997 993.46875 790.38281 C 994.46024 790.09552 995.42247 789.81595 996.38477 789.53711 C 997.61117 789.12212 998.80189 788.7192 999.99219 788.31641 C 1003.8024 787.56198 1003.8022 787.56283 1006.5918 790.38281 C 1007.7138 791.62777 1008.8016 792.83657 1009.8906 794.04492 C 1016.9915 800.9113 1021.618 804.27751 1030.7656 803.05664 L 1030.7656 794.04492 C 1023.5241 790.36428 1018.0059 786.40583 1012.5781 779.39648 C 1009.9107 775.69848 1008.195 773.37562 1004.4277 771.58203 C 1001.2957 771.51161 1001.2957 771.51092 998.25 773.37109 C 997.1981 774.27089 996.17715 775.14424 995.15625 776.01758 C 991.88663 778.4176 988.61723 780.81678 985.34766 783.2168 C 984.50781 783.8333 983.69211 784.43288 982.87695 785.03125 C 986.0282 777.16003 989.59996 771.61214 995.11328 765.97656 C 998.53788 763.26653 1001.0148 763.05333 1004.9805 764 C 1005.398 764.51076 1005.8018 765.00622 1006.207 765.50195 C 1008.6623 765.56325 1011.119 765.56585 1013.5742 765.50195 C 1015.9744 760.56881 1017.2916 757.5075 1017.1055 751.70117 C 1015.9592 747.19341 1015.6782 745.33465 1012.3477 742.96875 C 1011.0977 742.79635 1009.9103 742.70884 1008.7773 742.70312 z M 718.49805 742.875 C 701.4247 742.57228 686.14684 763.14922 676.21289 778.45898 C 671.92041 786.06874 670.92229 790.94125 672.22266 800.05273 C 673.47511 801.07424 674.69064 802.06519 675.90625 803.05664 C 690.82367 805.34458 704.54687 800.53682 716.90625 790.38281 C 719.19503 787.66424 719.65286 785.83647 720.10938 782.02539 C 717.26989 781.83762 717.27064 781.83762 713.9707 782.02539 C 705.32626 789.07589 697.31837 792.01174 686.95703 792.54102 C 686.75181 788.97374 686.75181 788.97503 686.95703 785.03125 C 694.4185 771.33856 705.04071 761.5433 717.6543 756.11328 C 719.72134 755.31248 721.77491 754.4543 723.79297 753.48438 C 725.17434 750.1044 725.17434 750.10427 723.79297 742.96875 C 722.63758 742.94205 722.63837 742.94212 721.50586 742.91602 C 719.98714 742.89522 719.98669 742.8953 718.49805 742.875 z M 751.875 742.87695 C 749.37541 742.80886 747.16253 742.94476 744.66797 744.4707 C 741.20096 752.76107 739.07282 761.67677 737.06055 770.63672 C 735.29331 780.26109 734.17675 788.59855 738.375 797.33008 C 742.21215 800.05284 742.21189 800.05358 744.92188 800.80469 C 752.87754 801.54042 757.9887 798.31877 764.51562 793.01172 C 765.28209 792.34137 766.0256 791.68971 766.76953 791.03906 C 765.1499 795.55682 763.52635 800.06784 761.85742 804.55859 C 757.51913 815.43066 753.35521 826.21917 750.09375 837.6582 C 749.76208 838.85416 749.44104 840.015 749.11914 841.17578 C 746.89947 849.02651 745.43161 856.61019 744.58398 864.85742 C 744.66852 867.65279 744.66728 867.65182 747.12305 870.65625 C 750.11602 870.56237 750.11721 870.56263 753.26367 869.1543 C 755.52496 865.21284 757.04634 861.34493 758.52344 856.87891 C 759.33654 854.10456 760.14993 851.33064 760.97266 848.56055 C 761.2833 847.51704 761.58522 846.50303 761.88672 845.49023 C 769.60882 819.38388 777.95496 793.99556 789.63867 770.10156 C 792.06566 765.36607 792.06607 765.36778 793.7832 760.99609 C 794.1097 756.24258 794.30127 753.25207 792.55469 748.97852 C 791.38054 748.85083 790.24119 748.72548 789.10156 748.60156 C 785.18767 748.97711 785.1875 748.97671 783.39844 751.53516 C 782.06676 753.96039 780.66317 756.32908 779.21094 758.64844 C 778.37272 759.95724 777.55967 761.22774 776.74609 762.49805 C 775.11774 765.06051 773.42867 767.56513 771.68164 770.00781 C 769.62836 772.00033 767.57916 774.00194 765.54102 776.01758 L 765.54102 779.02148 L 763.08594 779.02148 C 758.08357 782.22054 753.98023 784.21147 748.35156 785.03125 C 747.89542 776.30775 749.33175 770.28799 752.11133 762.31055 C 754.47296 755.54577 756.53041 750.2998 754.49023 742.96875 C 753.57218 742.94433 752.7082 742.89965 751.875 742.87695 z M 944.89453 760.79883 C 945.66643 760.82228 946.4583 760.88782 947.26953 760.99609 C 948.22484 764.4535 948.22352 764.45219 948.49609 768.50586 C 942.78926 779.75434 932.39826 787.10327 922.99023 792.9707 C 919.88433 794.19064 918.36932 793.88472 915.34375 792.54102 C 915.34375 787.60681 916.14116 784.28085 918.45117 780.23633 C 926.01137 769.39048 933.31605 760.44703 944.89453 760.79883 z " />
</svg>
